Coordinates
version=1
nRows=17
nColumns=36
inDegrees=yes

Units are S.I. units (second, meters, Newtons, ...)
If the header above contains a line with 'inDegrees', this indicates whether rotational values are in degrees (yes) or radians (no).

endheader
time	pelvis_tilt	pelvis_list	pelvis_rotation	pelvis_tx	pelvis_ty	pelvis_tz	hip_flexion_r	hip_adduction_r	hip_rotation_r	knee_angle_r	knee_angle_r_beta	ankle_angle_r	subtalar_angle_r	mtp_angle_r	hip_flexion_l	hip_adduction_l	hip_rotation_l	knee_angle_l	knee_angle_l_beta	ankle_angle_l	subtalar_angle_l	mtp_angle_l	lumbar_extension	lumbar_bending	lumbar_rotation	arm_flex_r	arm_add_r	arm_rot_r	elbow_flex_r	pro_sup_r	arm_flex_l	arm_add_l	arm_rot_l	elbow_flex_l	pro_sup_l
      1.17083330	     -8.30993053	      2.31994992	     -2.10287276	     -0.94689024	      1.30645106	     -0.08503181	      9.90717065	     -3.37287029	     11.76868483	      4.79498941	      0.08368835	      4.45888752	    -18.43124015	     -7.49999987	      9.10728968	      0.92854264	      8.40053141	      4.16873809	      0.07275821	      6.60301486	    -13.93389165	     -7.49999987	    -22.41603169	     -2.46445007	      2.36457793	      9.87878591	    -14.28499759	      5.92851455	     27.79151455	     85.38318827	      8.14198014	    -12.27850089	      7.68512849	     31.82771336	     79.94833453
      1.17500000	     -9.03920425	      2.37024526	     -2.01383633	     -0.94717913	      1.31087627	     -0.08650571	     11.05630820	     -3.42478142	     11.76105500	      5.28272344	      0.09220092	      4.57727139	    -18.39604864	     -7.49999987	     10.22628202	      0.99893167	      8.55925967	      4.64005428	      0.08098422	      6.60996765	    -14.05293428	     -7.49999987	    -22.04321270	     -2.40381572	      2.34570401	      9.75850705	    -14.51618056	      5.78815752	     27.62218295	     85.51930010	      8.01452503	    -12.35486664	      7.47298384	     31.56005015	     79.94114884
      1.17916670	     -9.85750656	      2.39964469	     -1.89250331	     -0.94816801	      1.30708985	     -0.08605926	     12.21992084	     -3.42679790	     11.81468797	      5.66289595	      0.09883618	      4.78156865	    -18.31397646	     -7.49999987	     11.41666249	      1.03611430	      8.64909124	      5.10461138	      0.08909228	      6.68128091	    -14.20810521	     -7.49999987	    -21.43849804	     -2.34969142	      2.33243057	      9.52079174	    -14.64410944	      5.53299426	     27.32714876	     85.16851108	      7.76731549	    -12.45503427	      7.18533436	     31.30103324	     79.28397385
      1.18333330	    -10.36832408	      2.47469074	     -1.78523166	     -0.94842615	      1.30909978	     -0.08842616	     12.98563528	     -3.54415507	     11.72313253	      5.95337071	      0.10390592	      4.97679528	    -18.04904950	     -7.49999987	     12.24099219	      1.14964370	      8.65001898	      5.51883701	      0.09632188	      6.74804232	    -14.14012119	     -7.49999987	    -21.27673082	     -2.32483466	      2.25957326	      9.37078846	    -14.84942055	      5.31420484	     27.17040963	     84.33928942	      7.59879537	    -12.51315474	      6.96748670	     31.12548293	     78.42488571
      1.18750000	    -10.46153194	      2.50621006	     -1.78080628	     -0.95047765	      1.31302344	     -0.08940186	     13.15986676	     -3.64706870	     11.76464856	      5.93196844	      0.10353238	      4.95042571	    -18.00051761	     -7.49999987	     12.38912911	      1.18437822	      8.62205753	      5.53982209	      0.09668814	      6.73756137	    -14.15859441	     -7.49999987	    -21.57065510	     -2.30987193	      2.18988308	      9.21828503	    -15.01654370	      5.28338039	     27.06623491	     84.34185741	      7.47201283	    -12.59358470	      6.95658693	     31.03419185	     78.42270217
      1.19166670	    -11.26713689	      2.62255118	     -1.64262937	     -0.94920023	      1.31053691	     -0.08909105	     14.22956447	     -3.84193452	     11.49415457	      6.27006351	      0.10943325	      4.93280656	    -17.67879897	     -7.49999987	     13.60956658	      1.37549041	      8.70349860	      6.10481986	      0.10654921	      6.64350694	    -14.43275912	     -7.49999987	    -20.95788570	     -2.31397632	      1.99927256	      9.11070774	    -15.16906267	      5.25687722	     26.53688972	     82.20956352	      7.30310528	    -12.68633329	      7.17556999	     30.38792463	     76.09827258
      1.19583330	    -11.43325793	      2.68085893	     -1.54940052	     -0.95190396	      1.31381505	     -0.08972447	     14.43990475	     -3.95689216	     11.54256912	      6.21167769	      0.10841423	      4.84597106	    -17.47120167	     -7.49999987	     13.87295712	      1.46807919	      8.66595858	      6.20776462	      0.10834593	      6.49908160	    -14.37575537	     -7.49999987	    -21.19695639	     -2.29172546	      1.92531029	      8.99915262	    -15.39444219	      5.17319606	     26.39087568	     82.25705046	      7.18291237	    -12.79818273	      7.12227610	     30.22387884	     76.09557427
      1.20000000	    -11.83746831	      2.67522897	     -1.35467790	     -0.95009334	      1.31449538	     -0.08882567	     14.83194884	     -4.03162663	     11.05458839	      6.14012761	      0.10716544	      5.28735699	    -16.35178726	     -7.49999987	     14.42500065	      1.46344916	      8.50112469	      6.42301437	      0.11210275	      6.57141134	    -14.08392088	     -7.49999987	    -20.82297430	     -2.22533292	      1.81982037	      8.75060293	    -15.30542801	      4.67549411	     25.62288979	     79.78420098	      6.97950170	    -12.73968384	      6.65683430	     29.37274031	     73.90923203
      1.20416670	    -11.81123198	      2.66702539	     -1.25655281	     -0.95034790	      1.31418521	     -0.08877802	     14.74800393	     -4.05654943	     11.01547759	      5.99803721	      0.10468550	      5.32672584	    -16.11094003	     -7.49999987	     14.38123675	      1.45778682	      8.62655247	      6.39745556	      0.11165666	      6.28271697	    -14.39478655	     -7.49999987	    -21.20143783	     -2.19512955	      1.66517639	      8.57745801	    -15.35032750	      3.35290819	     25.54885732	     85.23011825	      6.74220734	    -12.96129078	      6.56349039	     29.25222989	     74.54476792
      1.20833330	    -11.86152306	      2.64068119	     -1.11809958	     -0.95051918	      1.31370348	     -0.08948026	     14.74894100	     -4.06235016	     11.02851858	      5.78039099	      0.10088685	      5.43643722	    -15.65367066	     -7.49999987	     14.45217907	      1.45399671	      8.56927471	      6.37490093	      0.11126301	      6.13711938	    -14.38241199	     -7.49999987	    -21.37447422	     -2.12369070	      1.58827177	      8.35057397	    -15.45062310	      3.19967745	     25.15677485	     84.65042410	      6.55908507	    -13.07088222	      6.45237198	     28.87834966	     74.08744834
      1.21250000	    -11.90051062	      2.65162219	     -1.06232065	     -0.95053545	      1.30979438	     -0.09012012	     14.79694766	     -4.11793766	     10.92987726	      5.77046044	      0.10071353	      5.47465510	    -15.45056106	     -7.49999987	     14.51205900	      1.47493720	      8.34271397	      6.38385262	      0.11141925	      6.19332328	    -14.21045385	     -7.49999987	    -21.59258493	     -2.12876067	      1.48250901	      8.15711442	    -15.57209716	      3.30372508	     24.90285759	     82.52810900	      6.33128268	    -13.29292432	      6.49314096	     28.64212904	     72.66542114
      1.21666670	    -12.13850283	      2.68751639	     -0.96105073	     -0.95142594	      1.30885546	     -0.09105755	     15.09503518	     -4.21696258	     10.75885072	      5.81203726	      0.10143919	      5.54417001	    -15.18130536	     -7.49999987	     14.84809903	      1.54799021	      8.21287597	      6.46343391	      0.11280820	      6.09002878	    -14.40333955	     -7.49999987	    -21.59838787	     -2.09069400	      1.43363225	      7.97378495	    -15.74170410	      3.19942938	     24.53410850	     81.91765949	      6.16669473	    -13.41744107	      6.33595473	     28.30290168	     72.11785485
      1.22083330	    -12.46982074	      2.72880284	     -0.86267136	     -0.95096573	      1.30352985	     -0.09043501	     15.48977431	     -4.28207647	     10.70036086	      5.89196329	      0.10283416	      5.80867943	    -14.93508856	     -7.49999987	     15.32098569	      1.61628987	      8.19091033	      6.65428939	      0.11613926	      6.18050337	    -14.60034021	     -7.49999987	    -21.36393384	     -2.10516280	      1.31577329	      7.57233579	    -15.86173744	      3.24468168	     24.23626242	     81.29154862	      5.75521116	    -13.67493854	      6.17907606	     28.18914755	     71.45589057
      1.22500000	    -13.00410427	      2.77149292	     -0.75471323	     -0.95094435	      1.30165957	     -0.09019814	     16.10409555	     -4.34344190	     10.55197442	      6.05463724	      0.10567335	      6.30802802	    -14.51285600	     -7.49999987	     16.04768885	      1.67979856	      7.94843614	      6.92415816	      0.12084936	      6.63865885	    -14.20193509	     -7.49999987	    -20.95020145	     -2.16073183	      1.23432422	      6.80097809	    -16.09615866	      3.15115054	     24.79786397	     80.58130950	      5.11367275	    -14.09469305	      6.02242005	     28.71943890	     71.00197616
      1.22916670	    -13.34281268	      2.82939225	     -0.68819774	     -0.95055979	      1.29831002	     -0.09040850	     16.52823942	     -4.41846270	     10.53446630	      6.23227854	      0.10877378	      6.25018327	    -14.93612627	     -7.49999987	     16.54445628	      1.76461400	      7.84839623	      7.16551703	      0.12506186	      6.70567155	    -14.35126221	     -7.49999987	    -20.59971395	     -2.20723086	      1.14460732	      6.50365702	    -16.12609268	      2.79624261	     23.94378308	     79.59748930	      4.84438469	    -14.24837232	      5.46260118	     27.89970878	     70.17560365
      1.23333330	    -13.98325127	      2.90663521	     -0.68060261	     -0.95091693	      1.29906269	     -0.09087787	     17.31289852	     -4.49336656	     10.47081062	      6.50886646	      0.11360115	      6.33253040	    -15.13276028	     -7.49999987	     17.38020911	      1.86349249	      7.87200673	      7.47902260	      0.13053357	      6.77524214	    -14.46488209	     -7.49999987	    -19.97667104	     -2.26786663	      1.04145947	      6.07924384	    -16.26777635	      2.74184254	     23.71901599	     79.19037650	      4.26170887	    -14.47854981	      5.03200856	     27.75700042	     69.49326447
      1.23750000	    -14.45632934	      2.97570496	     -0.71039435	     -0.95119336	      1.29927215	     -0.09146618	     17.90472975	     -4.56379285	     10.44481300	      6.66696645	      0.11636052	      6.42611220	    -15.23950097	     -7.49999987	     18.02128455	      1.95419195	      7.84950327	      7.72907447	      0.13489780	      6.96198873	    -14.31226558	     -7.49999987	    -19.63633259	     -2.30236568	      0.97522393	      5.67707397	    -16.40428313	      2.56731454	     23.68954742	     78.01074757	      3.74372624	    -14.72065336	      4.68980503	     27.76263139	     68.62923976
